<?xml version="1.0" encoding="UTF-8"?>
<svg id="Meetings" xmlns="http://www.w3.org/2000/svg" xmlns:xlink="http://www.w3.org/1999/xlink" version="1.1" viewBox="0 0 58.7991 58.7991">
  <defs>
    <style>
      .cls-1 {
        fill: #0b5cff;
      }

      .cls-1, .cls-2, .cls-3, .cls-4 {
        stroke-width: 0px;
      }

      .cls-2 {
        fill: url(#radial-gradient);
      }

      .cls-3 {
        fill: url(#radial-gradient-2);
      }

      .cls-4 {
        fill: #fff;
      }
    </style>
    <radialGradient id="radial-gradient" cx="-2879.32492" cy="-184.8774" fx="-2879.32492" fy="-184.8774" r="2.09996" gradientTransform="translate(54378.67285 2942.59042) scale(18.8757 15.7759)" gradientUnits="userSpaceOnUse">
      <stop offset=".82" stop-color="#365cfa" stop-opacity="0"/>
      <stop offset=".98" stop-color="#233ead"/>
    </radialGradient>
    <radialGradient id="radial-gradient-2" cx="-2879.28472" cy="-184.63298" fx="-2879.28472" fy="-184.63298" r="2.10001" gradientTransform="translate(54358.33582 2944.50313) scale(18.8689 15.7702)" gradientUnits="userSpaceOnUse">
      <stop offset=".8" stop-color="#365cfa" stop-opacity="0"/>
      <stop offset="1" stop-color="#80a2ed"/>
    </radialGradient>
  </defs>
  <path class="cls-1" d="M58.7991,29.39955c0,3.14386-.25199,6.22661-.73494,9.23251-1.59817,9.95091-9.48138,17.83313-19.43316,19.43142-3.00499.48278-6.08778.73562-9.23145.73562s-6.22646-.25283-9.23145-.73562c-9.95177-1.59829-17.83498-9.48051-19.43316-19.43142-.48295-3.00589-.73494-6.08864-.73494-9.23251s.25199-6.22661.73494-9.23251C2.33311,10.21614,10.21632,2.33391,20.1681.73562c3.00499-.48278,6.08778-.73562,9.23145-.73562s6.22646.25283,9.23145.73562c9.95177,1.59829,17.83498,9.48051,19.43316,19.43142.48295,3.00589.73494,6.08864.73494,9.23251Z"/>
  <path class="cls-2" d="M58.7991,29.39955c0,3.14386-.25199,6.22661-.73494,9.23251-1.59817,9.95091-9.48138,17.83313-19.43316,19.43142-3.00499.48278-6.08778.73562-9.23145.73562s-6.22646-.25283-9.23145-.73562c-9.95177-1.59829-17.83498-9.48051-19.43316-19.43142-.48295-3.00589-.73494-6.08864-.73494-9.23251s.25199-6.22661.73494-9.23251C2.33311,10.21614,10.21632,2.33391,20.1681.73562c3.00499-.48278,6.08778-.73562,9.23145-.73562s6.22646.25283,9.23145.73562c9.95177,1.59829,17.83498,9.48051,19.43316,19.43142.48295,3.00589.73494,6.08864.73494,9.23251Z"/>
  <path class="cls-3" d="M58.7991,29.39955c0,3.14386-.25199,6.22661-.73494,9.23251-1.60023,9.95091-9.48138,17.83313-19.43316,19.43142-3.00499.48278-6.08778.73562-9.23145.73562s-6.22646-.25283-9.2335-.73562c-9.94972-1.59829-17.83293-9.48051-19.43111-19.43142-.48295-3.0061-.73494-6.08864-.73494-9.23251,0-3.14365.25199-6.22661.73494-9.23272C2.33311,10.21614,10.21632,2.3337,20.16605.73541,23.17309.25263,26.25588,0,29.39955,0s6.22646.25263,9.23145.73541c9.95177,1.59828,17.83498,9.48072,19.43316,19.43142.48295,3.00611.73494,6.08886.73494,9.23272Z"/>
  <path class="cls-4" d="M35.69945,36.74944c0,1.73961-1.41117,3.14995-3.14995,3.14995h-13.64979c-3.47961,0-6.2999-2.82047-6.2999-6.2999v-11.54982c0-1.73961,1.41117-3.14995,3.14995-3.14995h13.64979c3.47961,0,6.2999,2.82047,6.2999,6.2999v11.54982ZM43.6793,20.78947l-4.61995,3.46495c-.79377.59492-1.25993,1.52857-1.25993,2.51996v5.24992c0,.9916.46616,1.92504,1.25993,2.51996l4.61995,3.46494c1.03742.77867,2.51999.03801,2.51999-1.25998v-14.69977c0-1.29778-1.48256-2.03865-2.51999-1.25998Z"/>
</svg>